# xmcd CD database file
#
# Track frame offsets:
#	150
#	17430
#	36421
#	53558
#	66696
#	82430
#	100665
#	117795
#	129317
#	140649
#
# Disc length: 2165 seconds
#
# Revision: 1
# Processed by: cddbd v1.5.2PL0 Copyright (c) Steve Scherf et al.
# Submitted via: CDex 1.79
#
DISCID=8c08730a
DTITLE=Bobby Pinson - Songs For Somebody
DYEAR=2007
DGENRE=Country
TTITLE0=Back In My Drinkin' Days
TTITLE1=Just To Prove I Could
TTITLE2=Don't Think I Don't Think Abut It
TTITLE3=Right To Be Wrong
TTITLE4=If I Met God Tonight
TTITLE5=I Probably Will
TTITLE6=This Close To Heaven
TTITLE7=Past Comin' Back
TTITLE8=Takin' Up Space
TTITLE9=If I Don't Make It Back
EXTD=YEAR: 2007
EXTT0=
EXTT1=
EXTT2=
EXTT3=
EXTT4=
EXTT5=
EXTT6=
EXTT7=
EXTT8=
EXTT9=
PLAYORDER=
